<svg width="26" height="24" viewBox="0 0 26 24" fill="none" xmlns="http://www.w3.org/2000/svg">
<path d="M8.08462 12C7.3882 10.9955 6.9998 9.79018 6.9998 8.57143C6.9998 8.27679 7.02659 7.98214 7.06677 7.6875C6.49087 7.88839 5.90159 7.99554 5.28552 7.99554C3.47748 7.99554 2.08462 6.85714 1.80337 6.85714C0.102481 6.85714 0.14266 10.5 0.14266 11.5848C0.14266 13.0714 1.40159 13.7143 2.74087 13.7143H4.53552C5.43284 12.6429 6.69177 12.0402 8.08462 12ZM22.4284 20.5313C22.4284 17.5045 21.7186 12.8571 17.7944 12.8571C17.3391 12.8571 15.6784 14.7188 12.9998 14.7188C10.3212 14.7188 8.66052 12.8571 8.20516 12.8571C4.28105 12.8571 3.57123 17.5045 3.57123 20.5313C3.57123 22.7009 5.00427 24 7.14712 24H18.8525C20.9953 24 22.4284 22.7009 22.4284 20.5313ZM8.71409 3.42857C8.71409 1.54018 7.17391 0 5.28552 0C3.39712 0 1.85695 1.54018 1.85695 3.42857C1.85695 5.31697 3.39712 6.85714 5.28552 6.85714C7.17391 6.85714 8.71409 5.31697 8.71409 3.42857ZM18.1427 8.57143C18.1427 5.73214 15.8391 3.42857 12.9998 3.42857C10.1605 3.42857 7.85695 5.73214 7.85695 8.57143C7.85695 11.4107 10.1605 13.7143 12.9998 13.7143C15.8391 13.7143 18.1427 11.4107 18.1427 8.57143ZM25.8569 11.5848C25.8569 10.5 25.8971 6.85714 24.1962 6.85714C23.915 6.85714 22.5221 7.99554 20.7141 7.99554C20.098 7.99554 19.5087 7.88839 18.9328 7.6875C18.973 7.98214 18.9998 8.27679 18.9998 8.57143C18.9998 9.79018 18.6114 10.9955 17.915 12C19.3078 12.0402 20.5668 12.6429 21.4641 13.7143H23.2587C24.598 13.7143 25.8569 13.0714 25.8569 11.5848ZM24.1427 3.42857C24.1427 1.54018 22.6025 0 20.7141 0C18.8257 0 17.2855 1.54018 17.2855 3.42857C17.2855 5.31697 18.8257 6.85714 20.7141 6.85714C22.6025 6.85714 24.1427 5.31697 24.1427 3.42857Z" fill="#F26335"/>
</svg>
