<svg width="24" height="24" viewBox="0 0 24 24" fill="none" xmlns="http://www.w3.org/2000/svg">
<path d="M2.25 0C1.00736 0 0 1.00736 0 2.25V12.75C0 13.9926 1.00736 15 2.25 15H9V16.5H1.5C0.671573 16.5 0 17.1716 0 18V22.5C0 23.3284 0.671573 24 1.5 24H22.5C23.3284 24 24 23.3284 24 22.5V18C24 17.1716 23.3284 16.5 22.5 16.5H15V15H21.75C22.9926 15 24 13.9926 24 12.75V2.25C24 1.00736 22.9926 0 21.75 0H2.25ZM2.25 1.5H21.75C22.1642 1.5 22.5 1.83579 22.5 2.25V12.75C22.5 13.1642 22.1642 13.5 21.75 13.5H2.25C1.83579 13.5 1.5 13.1642 1.5 12.75V2.25C1.5 1.83579 1.83579 1.5 2.25 1.5ZM18 18.75C18 18.3358 18.3358 18 18.75 18C19.1642 18 19.5 18.3358 19.5 18.75C19.5 19.1642 19.1642 19.5 18.75 19.5C18.3358 19.5 18 19.1642 18 18.75ZM21 18.75C21 18.3358 21.3358 18 21.75 18C22.1642 18 22.5 18.3358 22.5 18.75C22.5 19.1642 22.1642 19.5 21.75 19.5C21.3358 19.5 21 19.1642 21 18.75ZM2.25 18H9.75C10.1642 18 10.5 18.3358 10.5 18.75C10.5 19.1642 10.1642 19.5 9.75 19.5H2.25C1.83579 19.5 1.5 19.1642 1.5 18.75C1.5 18.3358 1.83579 18 2.25 18ZM1.5 21.375C1.5 21.1679 1.66789 21 1.875 21H10.125C10.3321 21 10.5 21.1679 10.5 21.375C10.5 21.5821 10.3321 21.75 10.125 21.75H1.875C1.66789 21.75 1.5 21.5821 1.5 21.375Z" fill="#F26335"/>
</svg>
